<svg xmlns="http://www.w3.org/2000/svg" viewBox="0 0 64 64" fill="none" role="img" aria-label="Cognitive Mesh logo">
  <defs>
    <linearGradient id="cognitivemesh" x1="0" y1="0" x2="64" y2="64" gradientUnits="userSpaceOnUse">
      <stop stop-color="#3498db" />
      <stop offset="1" stop-color="#2471a3" />
    </linearGradient>
  </defs>
  <rect width="64" height="64" rx="14" fill="url(#cognitivemesh)" />
  <g stroke="#fff" stroke-width="1.2" opacity=".4">
    <path d="M32 16 46 23 46 41 32 48 18 41 18 23Z" />
  </g>
  <g stroke="#fff" stroke-width="1.6" opacity=".85">
    <line x1="32" y1="32" x2="32" y2="16" />
    <line x1="32" y1="32" x2="46" y2="23" />
    <line x1="32" y1="32" x2="46" y2="41" />
    <line x1="32" y1="32" x2="32" y2="48" />
    <line x1="32" y1="32" x2="18" y2="41" />
    <line x1="32" y1="32" x2="18" y2="23" />
  </g>
  <g fill="#fff">
    <circle cx="32" cy="32" r="3.6" />
    <circle cx="32" cy="16" r="2.6" />
    <circle cx="46" cy="23" r="2.6" />
    <circle cx="46" cy="41" r="2.6" />
    <circle cx="32" cy="48" r="2.6" />
    <circle cx="18" cy="41" r="2.6" />
    <circle cx="18" cy="23" r="2.6" />
  </g>
</svg>
