<svg xmlns="http://www.w3.org/2000/svg" viewBox="0 0 64 64" fill="none" role="img" aria-label="ConvoLens logo">
  <defs>
    <linearGradient id="convolens" x1="0" y1="0" x2="64" y2="64" gradientUnits="userSpaceOnUse">
      <stop stop-color="#6c5ce7" />
      <stop offset="1" stop-color="#4834d4" />
    </linearGradient>
  </defs>
  <rect width="64" height="64" rx="14" fill="url(#convolens)" />
  <line x1="38" y1="38" x2="49" y2="49" stroke="#fff" stroke-width="4.4" stroke-linecap="round" />
  <circle cx="28" cy="28" r="14" fill="#fff" />
  <path d="M20 23h16a2.6 2.6 0 0 1 2.6 2.6v6.4a2.6 2.6 0 0 1-2.6 2.6h-9.4l-4.4 3.6.5-3.6H20a2.6 2.6 0 0 1-2.6-2.6v-6.4A2.6 2.6 0 0 1 20 23Z" fill="#6c5ce7" />
  <g fill="#fff">
    <circle cx="23.5" cy="28.8" r="1.7" />
    <circle cx="28" cy="28.8" r="1.7" />
    <circle cx="32.5" cy="28.8" r="1.7" />
  </g>
</svg>
