<svg xmlns="http://www.w3.org/2000/svg" viewBox="0 0 64 64" fill="none" role="img" aria-label="OmniPost logo">
  <defs>
    <linearGradient id="omnipost" x1="0" y1="0" x2="64" y2="64" gradientUnits="userSpaceOnUse">
      <stop stop-color="#6b7280" />
      <stop offset="1" stop-color="#4b5563" />
    </linearGradient>
  </defs>
  <rect width="64" height="64" rx="14" fill="url(#omnipost)" />
  <g stroke="#fff" stroke-width="2.2" stroke-linecap="round" opacity=".8">
    <line x1="32" y1="32" x2="32" y2="16" />
    <line x1="32" y1="32" x2="47" y2="22" />
    <line x1="32" y1="32" x2="49" y2="40" />
    <line x1="32" y1="32" x2="40" y2="50" />
    <line x1="32" y1="32" x2="20" y2="48" />
    <line x1="32" y1="32" x2="15" y2="34" />
    <line x1="32" y1="32" x2="19" y2="20" />
  </g>
  <g fill="#fff">
    <circle cx="32" cy="16" r="3" />
    <circle cx="47" cy="22" r="3" />
    <circle cx="49" cy="40" r="3" />
    <circle cx="40" cy="50" r="3" />
    <circle cx="20" cy="48" r="3" />
    <circle cx="15" cy="34" r="3" />
    <circle cx="19" cy="20" r="3" />
  </g>
  <circle cx="32" cy="32" r="6" fill="#fff" />
  <circle cx="32" cy="32" r="2.6" fill="#6b7280" />
</svg>
